<svg width="188" height="253" viewBox="0 0 188 253" fill="none"
	xmlns="http://www.w3.org/2000/svg">
	<g clip-path="url(#clip0)">
		<path fill-rule="evenodd" clip-rule="evenodd" d="M100.392 17.9918C97.5476 18.335 93.2123 19.9798 90.7396 21.6536C90.3523 21.9157 89.9834 22.1305 89.9204 22.1305C89.8574 22.1305 89.5439 22.3269 89.2239 22.5675C88.5781 23.0518 87.3312 23.6519 85.07 24.5667C84.2428 24.901 83.3122 25.2827 83.002 25.4144C82.6918 25.5466 82.2265 25.7393 81.968 25.8429C78.764 27.1295 76.9672 28.4161 76.1118 30.0365C75.4961 31.2021 75.5036 34.4579 76.1254 36.0586C76.9846 38.2721 78.1027 38.8001 78.005 36.9466C77.9387 35.6877 78.1211 35.5428 79.806 35.5166C80.8395 35.5002 81.8688 35.33 83.096 34.9718C85.4042 34.2975 87.8571 34.2661 90.24 34.8799C91.1189 35.1063 92.0495 35.3384 92.308 35.3961C92.5665 35.4538 92.9448 35.6151 93.1488 35.7548C93.3528 35.8945 93.6311 36.0089 93.7674 36.0089C94.0249 36.0089 94.8996 36.5697 95.6638 37.2247C96.0144 37.5252 97.008 39.1583 97.008 39.434C97.008 39.4677 96.6945 39.5165 96.311 39.5423C93.0487 39.7617 90.0078 44.1634 91.3671 46.6976C91.5193 46.9808 91.4061 47.0924 90.6306 47.4248C89.167 48.0531 88.172 49.5104 87.9008 51.4233C87.7899 52.2077 87.7095 52.325 87.1592 52.5059C85.8906 52.9237 85.1217 54.1948 85.187 55.7655L85.235 56.9203L84.53 57.1538C83.9279 57.3531 83.7376 57.3409 83.2257 57.0727C78.2169 54.4461 70.861 61.5035 67.656 72.0112C65.8747 77.8505 65.4903 82.7009 65.6858 96.8677C65.832 107.435 66.0148 108.452 69.4345 117.714C69.9999 119.246 71.2412 123.115 72.1929 126.312C77.4884 144.103 80.738 152.252 89.1656 168.876C90.7838 172.068 92.0894 174.684 92.0669 174.69C92.0443 174.695 91.2223 175.101 90.24 175.592C89.2577 176.083 88.3906 176.484 88.3135 176.483C88.2364 176.482 87.6442 176.727 86.9975 177.028C84.6479 178.12 81.349 178.949 78.2945 179.214C77.4715 179.285 76.6922 179.427 76.563 179.53C76.4046 179.655 76.2363 179.639 76.0465 179.482C74.7469 178.406 67.2951 180.27 65.4212 182.139C64.7157 182.843 63.544 185.196 63.544 185.91C63.544 186.617 63.4335 186.647 58.28 187.325C48.3296 188.633 0.81498 195.057 0.423 195.146L0 195.243V208.095V220.946L0.611 220.841C0.94705 220.783 10.4011 219.553 21.62 218.108C32.8389 216.663 46.5441 214.895 52.076 214.178C92.4899 208.941 110.661 206.64 124.644 204.99C147.163 202.331 160.042 200.284 160.834 199.239C161.532 198.318 163.189 195.337 163.582 194.298C165.936 188.061 163.206 177.879 158.228 174.336C156.845 173.351 156.954 173.364 154.137 173.847C152.961 174.049 139.012 176.078 123.14 178.357C107.268 180.636 88.7468 183.298 81.9821 184.273C68.1787 186.263 68.8893 186.188 68.7497 185.656C68.6078 185.114 69.2667 184.402 70.406 183.866C71.8719 183.176 72.1605 183.42 71.1768 184.517L70.782 184.958L72.004 184.86C72.6761 184.806 84.4355 183.148 98.136 181.176C111.837 179.203 128.671 176.785 135.547 175.802C142.422 174.819 148.072 173.99 148.103 173.959C148.205 173.857 151.123 158.999 151.88 154.726C153.271 146.876 154.436 138.505 154.63 134.98C154.674 134.177 154.762 133.436 154.825 133.334C154.888 133.232 154.917 132.832 154.889 132.445C154.861 132.057 154.904 131.635 154.983 131.507C155.063 131.379 155.106 130.913 155.078 130.473C155.052 130.033 155.094 129.569 155.172 129.442C155.251 129.315 155.294 128.85 155.266 128.41C155.24 127.97 155.281 127.506 155.36 127.379C155.439 127.252 155.482 126.744 155.456 126.252C155.429 125.758 155.472 125.252 155.549 125.127C155.627 125.001 155.67 124.452 155.645 123.905C155.619 123.359 155.662 122.81 155.739 122.686C155.816 122.562 155.858 122.013 155.833 121.467C155.807 120.921 155.85 120.372 155.927 120.248C156.004 120.124 156.046 119.575 156.021 119.029C155.995 118.483 156.039 117.932 156.118 117.805C156.197 117.678 156.235 117.05 156.203 116.41C156.171 115.77 156.211 115.14 156.293 115.009C156.376 114.878 156.422 114.324 156.397 113.778C156.371 113.232 156.4 112.706 156.46 112.608C156.782 112.089 156.796 110.486 156.533 104.447C156.374 100.794 156.195 96.1175 156.134 94.0545C155.681 78.6687 154.537 72.9982 150.095 64.1385C145.72 55.412 141.926 51.3905 137.609 50.9034C136.6 50.7894 136.47 50.7252 136.36 50.2887C136.089 49.2098 135.005 48.0447 133.678 47.407C132.513 46.8467 132.391 46.7328 132.283 46.1097C132.124 45.179 131.199 44.4086 129.759 44.0059C128.677 43.7025 128.618 43.658 128.797 43.2674C129.279 42.2125 127.564 40.5185 126.007 40.5119C125.708 40.5105 125.584 40.3984 125.584 40.1284C125.584 39.0392 123.608 37.8009 122.059 37.9195C121.268 37.98 121.26 37.9744 121.26 37.362C121.26 37.0216 121.14 36.135 120.994 35.3914C120.847 34.6478 120.671 33.6317 120.603 33.1333C120.425 31.8224 118.766 27.085 117.957 25.5771C114.582 19.2882 109.137 16.9368 100.392 17.9918ZM99.562 22.8905C101.172 23.8831 100.67 26.1022 98.7183 26.6269C96.9869 27.0915 95.3028 26.0994 95.2826 24.6023C95.2563 22.7123 97.6928 21.738 99.562 22.8905ZM139.667 203.936C139.625 203.974 132.568 204.831 123.986 205.84C115.404 206.849 108.35 207.7 108.311 207.731C108.049 207.937 107.084 212.401 106.684 215.256C106.057 219.732 106.157 221.246 107.23 223.541C108.855 227.019 113.703 226.713 115.611 223.011L115.939 222.373L116.069 225.356C116.471 234.565 117.381 236.901 121.281 238.742C126.366 241.141 131.605 237.764 133.35 230.963C134.136 227.905 134.268 225.106 133.762 222.242C133.607 221.366 133.48 220.584 133.48 220.505C133.48 220.426 133.797 220.568 134.185 220.82C136.959 222.622 140.139 221.873 141.282 219.148C142.627 215.938 142.612 214.699 141.152 208.739C140.735 207.037 140.35 205.391 140.295 205.082C140.195 204.512 139.809 203.807 139.667 203.936Z" fill="#531B1B"/>
		<path fill-rule="evenodd" clip-rule="evenodd" d="M96.5131 22.8652C95.5378 23.4588 94.8009 25.1312 95.5153 25.1312C95.6248 25.1312 95.6699 25.2029 95.6154 25.2906C95.5613 25.3783 95.7183 25.6245 95.9641 25.8378C97.7196 27.3602 100.392 26.5008 100.392 24.4138C100.392 22.8882 98.0274 21.9439 96.5131 22.8652ZM151.246 173.507C145.169 174.495 140.822 175.138 119.004 178.277C107.165 179.98 92.1905 182.138 85.728 183.073C78.2259 184.159 73.061 184.818 71.4419 184.894C69.1741 185.002 68.8992 185.052 68.8395 185.362C68.7098 186.041 69.1751 186.012 77.456 184.823C82.0573 184.163 95.551 182.223 107.442 180.513C134.506 176.62 149.746 174.434 150.486 174.338C150.8 174.297 152.138 174.085 153.457 173.866C156.776 173.317 156.964 173.322 157.944 173.995C163.659 177.918 166.358 189.067 163.151 195.507C161.333 199.157 160.631 199.908 158.766 200.197C158.352 200.262 157.464 200.44 156.792 200.594C155.6 200.867 142.773 202.9 139.778 203.29C137.816 203.545 110.171 206.815 108.946 206.937C108.429 206.988 100.477 208.007 91.274 209.2C67.3115 212.309 59.8221 213.279 36.284 216.32C24.7549 217.81 11.8746 219.474 7.661 220.019C0.797124 220.906 4.35196e-06 221.044 4.35196e-06 221.345C4.35196e-06 221.529 0.0709744 221.68 0.157924 221.68C0.297984 221.68 15.4155 219.731 48.88 215.4C54.8255 214.63 70.1804 212.649 83.002 210.998C95.8236 209.346 107.075 207.867 108.006 207.71C109.734 207.42 139.243 203.934 140.435 203.88C141.118 203.849 153.108 201.948 157.561 201.164C161.241 200.517 161.471 200.323 163.679 196.017C166.689 190.146 164.96 179.745 160.181 174.974C157.846 172.643 157.206 172.538 151.246 173.507ZM40.044 188.947C27.6877 190.624 13.623 192.529 8.789 193.182C0.871855 194.252 4.35196e-06 194.403 4.35196e-06 194.709C4.35196e-06 195.133 -3.70642 195.58 26.0136 191.567C58.1649 187.226 62.7896 186.609 63.1812 186.609C63.277 186.609 63.356 186.44 63.356 186.234C63.356 185.741 65.6111 185.478 40.044 188.947Z" fill="#ED8659"/>
		<path fill-rule="evenodd" clip-rule="evenodd" d="M164.544 189.609C164.544 189.97 164.582 190.118 164.63 189.938C164.677 189.757 164.677 189.462 164.63 189.281C164.582 189.101 164.544 189.248 164.544 189.609Z" fill="#944833"/>
		<path fill-rule="evenodd" clip-rule="evenodd" d="M100.627 17.9463C100.808 17.9932 101.104 17.9932 101.285 17.9463C101.466 17.899 101.318 17.8605 100.956 17.8605C100.594 17.8605 100.446 17.899 100.627 17.9463ZM93.248 20.1612C92.7827 20.4097 92.4687 20.617 92.5505 20.6217C92.7503 20.6329 94.188 19.8959 94.188 19.7824C94.188 19.6581 94.196 19.6549 93.248 20.1612ZM117.33 24.4635C117.547 24.8307 117.761 25.1312 117.806 25.1312C117.939 25.1312 117.329 24.0383 117.125 23.9126C117.021 23.8484 117.113 24.0964 117.33 24.4635ZM79.712 26.7254C79.2467 26.9739 78.9327 27.1811 79.0145 27.1858C79.2143 27.197 80.652 26.46 80.652 26.3465C80.652 26.2223 80.66 26.219 79.712 26.7254ZM77.5824 27.9524C77.3136 28.1634 76.9146 28.6064 76.6955 28.937L76.297 29.5385L76.7769 28.9759C77.041 28.6665 77.4922 28.2238 77.7794 27.9922C78.067 27.7606 78.2498 27.5707 78.1864 27.5702C78.1229 27.5698 77.8508 27.7419 77.5824 27.9524ZM86.4354 34.4537C86.6689 34.4987 87.0073 34.4968 87.1874 34.4499C87.3669 34.403 87.1756 34.366 86.762 34.3683C86.3484 34.3702 86.2013 34.4087 86.4354 34.4537ZM95.128 36.8177C95.128 36.85 95.403 37.1243 95.739 37.4272L96.35 37.9781L95.7978 37.3686C95.2831 36.8003 95.128 36.6728 95.128 36.8177ZM92.3903 41.6822L91.838 42.2917L92.449 41.7408C92.7851 41.4379 93.06 41.1636 93.06 41.1313C93.06 40.9864 92.9049 41.1139 92.3903 41.6822ZM91.3986 43.0499C91.0837 43.7396 91.1438 43.8868 91.4841 43.2599C91.6434 42.9669 91.7384 42.6921 91.6951 42.6494C91.6524 42.6063 91.5189 42.7868 91.3986 43.0499ZM75.4703 58.9364L74.918 59.546L75.529 58.995C76.0986 58.4816 76.2265 58.3269 76.0813 58.3269C76.0488 58.3269 75.7739 58.6012 75.4703 58.9364ZM65.6797 84.3959C65.6797 85.3758 65.7116 85.7767 65.7502 85.2867C65.7887 84.7967 65.7887 83.995 65.7502 83.505C65.7116 83.015 65.6797 83.4159 65.6797 84.3959ZM65.6806 101.744C65.6811 102.775 65.7126 103.173 65.7507 102.629C65.7887 102.083 65.7887 101.239 65.7497 100.753C65.7112 100.266 65.6802 100.712 65.6806 101.744ZM140.324 205.176C140.449 205.964 141.591 210.327 141.699 210.427C141.86 210.576 141.649 209.537 141.126 207.614C140.553 205.501 140.21 204.459 140.324 205.176ZM107.924 208.238C107.63 209.011 107.127 211.171 107.194 211.373C107.23 211.48 107.477 210.721 107.743 209.685C108.207 207.88 108.279 207.308 107.924 208.238ZM141.987 212.209C141.989 212.621 142.028 212.768 142.073 212.535C142.118 212.302 142.116 211.964 142.069 211.784C142.022 211.605 141.985 211.796 141.987 212.209ZM106.903 212.319C106.838 212.645 106.794 213.134 106.806 213.404C106.818 213.675 106.904 213.44 106.996 212.883C107.177 211.797 107.1 211.334 106.903 212.319ZM106.452 215.246C106.324 215.987 106.231 216.916 106.244 217.309C106.259 217.757 106.362 217.395 106.523 216.335C106.834 214.276 106.775 213.363 106.452 215.246ZM141.842 217.453C141.601 218.676 141.006 219.847 140.18 220.725C139.455 221.496 139.444 221.524 140.012 221.135C140.959 220.488 142.343 217.684 142.077 216.953C142.028 216.82 141.922 217.045 141.842 217.453ZM106.271 220.555C106.271 221.019 106.308 221.209 106.353 220.976C106.398 220.744 106.398 220.365 106.353 220.133C106.308 219.9 106.271 220.09 106.271 220.555ZM133.543 220.919C133.612 221.26 133.68 221.718 133.695 221.938C133.709 222.157 133.773 222.011 133.836 221.614L133.95 220.892L134.42 221.256C135.462 222.062 137.695 222.319 138.838 221.764L139.402 221.49L138.885 221.588C136.825 221.98 135.441 221.734 134.018 220.723L133.419 220.298L133.543 220.919ZM106.609 222.431C106.538 223.997 109.095 226.368 110.852 226.368C112.113 226.368 115.749 224.54 114.568 224.5C114.454 224.496 114.158 224.67 113.91 224.886C111.985 226.562 109.8 226.488 108.1 224.691C107.477 224.033 107.285 223.722 106.819 222.618C106.711 222.36 106.616 222.276 106.609 222.431ZM115.636 222.954C115.502 223.278 115.274 223.64 115.13 223.76C114.986 223.879 114.868 224.067 114.868 224.178C114.868 224.289 115.129 224.026 115.448 223.593C115.767 223.16 115.995 222.707 115.954 222.586C115.914 222.465 115.77 222.63 115.636 222.954ZM116.01 227.415C116.018 228.335 116.091 229.468 116.174 229.932C116.264 230.444 116.286 229.816 116.228 228.338C116.117 225.514 115.989 224.976 116.01 227.415ZM133.157 231.62C133.04 232.084 132.892 232.675 132.829 232.933C132.766 233.19 132.89 232.986 133.106 232.48C133.322 231.973 133.469 231.382 133.433 231.167C133.391 230.905 133.299 231.055 133.157 231.62ZM116.759 233.368C116.732 234.218 117.946 236.563 118.892 237.484C123.188 241.674 130.422 239.631 132.686 233.589C132.833 233.196 132.231 234.096 131.6 235.213C128.183 241.259 119.433 240.691 117.205 234.278C116.966 233.59 116.765 233.18 116.759 233.368Z" fill="#100606"/>
	</g>
	<defs>
		<clipPath id="clip0">
			<rect width="188" height="253" fill="white"/>
		</clipPath>
	</defs>
</svg>
